<svg width="512" height="512" xmlns="http://www.w3.org/2000/svg" xml:space="preserve" version="1.1">

 <g>
  <title>Layer 1</title>
  <path id="svg_1" fill="#ea194e" d="m0,256.006c0,141.396 114.606,255.998 255.996,255.994c141.398,0.004 256.004,-114.598 256.004,-255.994c0.009,-141.396 -114.606,-256.006 -256.004,-256.006c-141.39,0 -255.996,114.614 -255.996,256.006z"/>
  <path id="svg_2" fill="#a51338" d="m506.375,309.443c-0.4,-0.507 -79.632,-79.781 -80.218,-80.218c-1.361,-1.829 -3.435,-3.092 -5.89,-3.092c-4.124,0 -7.467,3.34 -7.467,7.467l0,22.4l-190.53,0c-0.315,-0.337 -0.706,-0.607 -1.035,-0.932c-0.477,-0.533 -32.855,-32.862 -33.367,-33.367c-4.27,-4.771 -9.927,-8.518 -16.571,-10.427l-2.659,-0.763c-0.369,-0.436 -70.427,-70.449 -71.013,-70.885c-1.362,-1.83 -3.436,-3.092 -5.891,-3.092c-4.123,0 -7.467,3.339 -7.467,7.467l0,224c0,2.457 1.263,4.531 3.092,5.89c0.436,0.588 0.93,1.081 1.517,1.517c0.435,0.586 132.873,133.025 133.459,133.459c0.284,0.382 0.644,0.674 0.986,0.987c10.707,1.364 21.597,2.146 32.675,2.146c123.068,0.002 225.8,-86.826 250.379,-202.557z"/>
  <path id="svg_3" fill="#F4F6F9" d="m420.267,226.133c-4.124,0 -7.467,3.34 -7.467,7.467l0,22.4l-220.084,0c1.199,-2.164 2.214,-4.434 2.8,-6.898c3.774,-15.939 -7.091,-32.908 -24.22,-37.829l-47.527,-13.643c-8.413,-2.406 -17.276,-1.467 -24.57,2.43l0,-56.06c0,-4.127 -3.343,-7.467 -7.467,-7.467c-4.124,0 -7.467,3.34 -7.467,7.467l0,224c0,4.127 3.343,7.467 7.467,7.467c4.124,0 7.467,-3.34 7.467,-7.467l0,-37.333l52.267,0l0,22.4c0,4.127 3.343,7.467 7.467,7.467l216.533,0c4.124,0 7.467,-3.34 7.467,-7.467l0,-22.4l29.867,0l0,37.333c0,4.127 3.343,7.467 7.467,7.467c4.124,0 7.467,-3.34 7.467,-7.467l0,-134.4c-0.001,-4.127 -3.344,-7.467 -7.467,-7.467zm-320.713,-4.594c1.028,-4.346 3.919,-6.818 6.161,-8.13c2.494,-1.458 5.433,-2.202 8.491,-2.202c1.794,0 3.628,0.255 5.44,0.773l47.527,13.643c9.418,2.705 15.743,11.886 13.81,20.037c-1.028,4.346 -3.919,6.818 -6.165,8.13c-3.952,2.311 -9.035,2.829 -13.938,1.429l-47.52,-13.643c-9.417,-2.705 -15.739,-11.884 -13.806,-20.037zm-0.354,94.194l0,-64.621c3.024,2.046 6.348,3.755 10.037,4.814l42.229,12.123l0,47.684l-52.266,0zm268.8,29.867l-201.6,0l0,-74.667l201.6,0l0,74.667zm14.933,-29.867l0,-44.8l29.867,0l0,44.8l-29.867,0z"/>
  <g id="svg_4"/>
  <g id="svg_5"/>
  <g id="svg_6"/>
  <g id="svg_7"/>
  <g id="svg_8"/>
  <g id="svg_9"/>
  <g id="svg_10"/>
  <g id="svg_11"/>
  <g id="svg_12"/>
  <g id="svg_13"/>
  <g id="svg_14"/>
  <g id="svg_15"/>
  <g id="svg_16"/>
  <g id="svg_17"/>
  <g id="svg_18"/>
 </g>
</svg>